<svg xmlns="http://www.w3.org/2000/svg" viewBox="0 0 400 300" width="406" height="306" class="illustration styles_illustrationTablet__1DWOa"><g id="_551_calculator_flatline" data-name="#551_calculator_flatline"><path d="M150.84,111.85a32.92,32.92,0,0,1,4.07-4.85,1.34,1.34,0,0,1,.59-.38c.67-.14,1.06.72,1.16,1.4a24.7,24.7,0,0,1-1.6,12.75c-1.49,3.63-2.58,7.6-6.16,9.79a2.5,2.5,0,0,1-1.75.47,1.93,1.93,0,0,1-1.34-1.56c-.46-2.43-3.55-.09-2.93-2.44.91-3.5,3.25-6.58,4.83-9.78A42.73,42.73,0,0,1,150.84,111.85Z" fill="#68e1fd"></path><polygon points="168.21 41.81 162.51 81.57 144.88 170.06 150.89 174.39 239.21 174.79 252.58 81.57 257.8 45.22 253.35 41.81 168.21 41.81" fill="#68e1fd"></polygon><path d="M239.21,175.29h0l-88.32-.4a.51.51,0,0,1-.29-.1l-6-4.33a.49.49,0,0,1-.2-.5L162,81.48l5.69-39.74a.51.51,0,0,1,.5-.43h85.14a.45.45,0,0,1,.3.1l4.45,3.41a.5.5,0,0,1,.19.47L239.71,174.86A.51.51,0,0,1,239.21,175.29Zm-88.16-1.4,87.73.4L257.26,45.44l-4.08-3.13H168.64L163,81.65l-17.57,88.19Z" fill="#231f20"></path><polygon points="247.65 81.57 157.57 81.57 163.27 41.81 253.35 41.81 247.65 81.57" fill="#68e1fd"></polygon><path d="M247.65,82.07H157.57a.52.52,0,0,1-.38-.17.48.48,0,0,1-.11-.4l5.7-39.76a.5.5,0,0,1,.49-.43h90.08a.52.52,0,0,1,.38.17.52.52,0,0,1,.11.4l-5.7,39.77A.5.5,0,0,1,247.65,82.07Zm-89.5-1h89.06l5.56-38.76H163.71Z" fill="#231f20"></path><polygon points="247.65 81.57 157.57 81.57 144.88 170.06 234.95 170.06 247.65 81.57" fill="#fff"></polygon><path d="M235,170.56H144.88a.54.54,0,0,1-.38-.17.53.53,0,0,1-.12-.4l12.7-88.49a.5.5,0,0,1,.49-.43h90.08a.49.49,0,0,1,.37.18.48.48,0,0,1,.12.4l-12.69,88.48A.51.51,0,0,1,235,170.56Zm-89.49-1h89.06l12.55-87.49H158Z" fill="#231f20"></path><polygon points="240.51 72.54 167.3 72.54 170.28 51.75 243.49 51.75 240.51 72.54" fill="#fff"></polygon><path d="M240.51,73H167.3a.53.53,0,0,1-.38-.18.5.5,0,0,1-.11-.39l3-20.79a.49.49,0,0,1,.49-.43h73.21a.52.52,0,0,1,.38.17.52.52,0,0,1,.11.4l-3,20.79A.5.5,0,0,1,240.51,73Zm-72.63-1h72.19l2.84-19.79H170.72Z" fill="#231f20"></path><path d="M175.33,104.56H165a2.26,2.26,0,0,1-2.29-2.67l.85-5.91a3.19,3.19,0,0,1,3.05-2.67H177A2.26,2.26,0,0,1,179.23,96l-.85,5.91A3.18,3.18,0,0,1,175.33,104.56Z" fill="#e6e7e8"></path><path d="M194.76,104.56H184.43a2.25,2.25,0,0,1-2.28-2.67L183,96a3.19,3.19,0,0,1,3-2.67h10.34A2.26,2.26,0,0,1,198.66,96l-.85,5.91A3.18,3.18,0,0,1,194.76,104.56Z" fill="#e6e7e8"></path><path d="M214.19,104.56H203.86a2.25,2.25,0,0,1-2.28-2.67l.84-5.91a3.2,3.2,0,0,1,3.05-2.67h10.34A2.26,2.26,0,0,1,218.09,96l-.85,5.91A3.17,3.17,0,0,1,214.19,104.56Z" fill="#e6e7e8"></path><path d="M233.62,104.56H223.29a2.26,2.26,0,0,1-2.28-2.67l.85-5.91a3.18,3.18,0,0,1,3-2.67h10.34A2.26,2.26,0,0,1,237.52,96l-.85,5.91A3.17,3.17,0,0,1,233.62,104.56Z" fill="#e6e7e8"></path><path d="M173.4,118H163.07a2.26,2.26,0,0,1-2.28-2.67l.85-5.91a3.18,3.18,0,0,1,3-2.67H175a2.26,2.26,0,0,1,2.28,2.67l-.85,5.91A3.17,3.17,0,0,1,173.4,118Z" fill="#e6e7e8"></path><path d="M192.84,118H182.5a2.26,2.26,0,0,1-2.28-2.67l.85-5.91a3.18,3.18,0,0,1,3-2.67h10.34a2.26,2.26,0,0,1,2.28,2.67l-.85,5.91A3.17,3.17,0,0,1,192.84,118Z" fill="#e6e7e8"></path><path d="M212.27,118H201.93a2.26,2.26,0,0,1-2.28-2.67l.85-5.91a3.18,3.18,0,0,1,3-2.67h10.34a2.26,2.26,0,0,1,2.28,2.67l-.85,5.91A3.17,3.17,0,0,1,212.27,118Z" fill="#e6e7e8"></path><path d="M231.7,118H221.36a2.26,2.26,0,0,1-2.28-2.67l.85-5.91a3.18,3.18,0,0,1,3-2.67h10.34a2.26,2.26,0,0,1,2.28,2.67l-.85,5.91A3.17,3.17,0,0,1,231.7,118Z" fill="#e6e7e8"></path><path d="M171.48,131.44H161.14a2.26,2.26,0,0,1-2.28-2.67l.85-5.91a3.18,3.18,0,0,1,3-2.67h10.34a2.26,2.26,0,0,1,2.28,2.67l-.85,5.91A3.17,3.17,0,0,1,171.48,131.44Z" fill="#e6e7e8"></path><path d="M190.91,131.44H180.57a2.26,2.26,0,0,1-2.28-2.67l.85-5.91a3.18,3.18,0,0,1,3.05-2.67h10.33a2.26,2.26,0,0,1,2.28,2.67l-.85,5.91A3.17,3.17,0,0,1,190.91,131.44Z" fill="#e6e7e8"></path><path d="M210.34,131.44H200a2.26,2.26,0,0,1-2.28-2.67l.85-5.91a3.18,3.18,0,0,1,3.05-2.67H212a2.25,2.25,0,0,1,2.28,2.67l-.84,5.91A3.19,3.19,0,0,1,210.34,131.44Z" fill="#e6e7e8"></path><path d="M229.77,131.44H219.43a2.26,2.26,0,0,1-2.28-2.67l.85-5.91a3.19,3.19,0,0,1,3.05-2.67h10.33a2.25,2.25,0,0,1,2.28,2.67l-.84,5.91A3.18,3.18,0,0,1,229.77,131.44Z" fill="#e6e7e8"></path><path d="M169.55,144.88H159.21a2.26,2.26,0,0,1-2.28-2.67l.85-5.91a3.19,3.19,0,0,1,3.05-2.67h10.33a2.25,2.25,0,0,1,2.28,2.67l-.84,5.91A3.18,3.18,0,0,1,169.55,144.88Z" fill="#e6e7e8"></path><path d="M189,144.88H178.64a2.26,2.26,0,0,1-2.28-2.67l.85-5.91a3.19,3.19,0,0,1,3-2.67h10.33a2.27,2.27,0,0,1,2.29,2.67l-.85,5.91A3.18,3.18,0,0,1,189,144.88Z" fill="#e6e7e8"></path><path d="M208.41,144.88H198.08a2.26,2.26,0,0,1-2.29-2.67l.85-5.91a3.19,3.19,0,0,1,3.05-2.67H210a2.26,2.26,0,0,1,2.29,2.67l-.85,5.91A3.18,3.18,0,0,1,208.41,144.88Z" fill="#e6e7e8"></path><path d="M227.84,144.88H217.51a2.26,2.26,0,0,1-2.29-2.67l.85-5.91a3.19,3.19,0,0,1,3.05-2.67h10.33a2.26,2.26,0,0,1,2.29,2.67l-.85,5.91A3.18,3.18,0,0,1,227.84,144.88Z" fill="#e6e7e8"></path><path d="M188.67,147.07H158.9a3.19,3.19,0,0,0-3.05,2.67l-.85,5.91a2.26,2.26,0,0,0,2.29,2.67h29.76a3.18,3.18,0,0,0,3-2.67l.85-5.91A2.26,2.26,0,0,0,188.67,147.07Z" fill="#e6e7e8"></path><path d="M206.48,158.32H196.15a2.26,2.26,0,0,1-2.29-2.67l.85-5.91a3.19,3.19,0,0,1,3-2.67H208.1a2.26,2.26,0,0,1,2.28,2.67l-.85,5.91A3.18,3.18,0,0,1,206.48,158.32Z" fill="#e6e7e8"></path><path d="M225.91,158.32H215.58a2.25,2.25,0,0,1-2.28-2.67l.84-5.91a3.2,3.2,0,0,1,3.05-2.67h10.34a2.26,2.26,0,0,1,2.28,2.67l-.85,5.91A3.17,3.17,0,0,1,225.91,158.32Z" fill="#e6e7e8"></path><path d="M230.83,56.11h2.45a2,2,0,0,1,1.62.72,2.06,2.06,0,0,1,.47,1.72l-.88,6.12a2.94,2.94,0,0,1-2.79,2.45h-2.45a2,2,0,0,1-1.62-.72,2.12,2.12,0,0,1-.48-1.73l.88-6.12a2.77,2.77,0,0,1,1-1.72A2.72,2.72,0,0,1,230.83,56.11Zm2.11,2.23a1,1,0,0,0-1.06-1,1.46,1.46,0,0,0-1.4,1.22l-.6,4.16Zm-3.34,6.52a1.1,1.1,0,0,0,.28.77,1.07,1.07,0,0,0,.77.26,1.35,1.35,0,0,0,.92-.36,1.41,1.41,0,0,0,.48-.86l.6-4.15Z" fill="#e6e7e8"></path><path d="M167.45,98.52s-15.17,16.76-22.57,25C141.77,127,140.35,135,146.4,135s17.35-10,21-13.8S167.45,98.52,167.45,98.52Z" fill="#68e1fd"></path><polygon points="202.02 236.73 207.73 250.01 216.4 247.22 211.55 233.95 202.02 236.73" fill="#fff"></polygon><path d="M207.73,250.51a.49.49,0,0,1-.46-.3l-5.71-13.28a.51.51,0,0,1,.32-.68l9.53-2.78a.5.5,0,0,1,.61.31l4.85,13.27a.59.59,0,0,1,0,.39.5.5,0,0,1-.3.25l-8.67,2.8A.39.39,0,0,1,207.73,250.51Zm-5-13.46L208,249.4l7.74-2.5-4.51-12.34Z" fill="#231f20"></path><path d="M207.73,250s2.1,7.12,2.81,7.15,18-3.9,17.32-5.76-11.46-4.18-11.46-4.18Z" fill="#231f20"></path><path d="M210.53,257.66h0c-.35,0-1.07,0-3.27-7.5a.49.49,0,0,1,.32-.62l8.67-2.8a.57.57,0,0,1,.26,0c2.59.55,11.09,2.52,11.83,4.49a.9.9,0,0,1-.15.86C226.63,254.25,211.42,257.66,210.53,257.66Zm-2.19-7.32a35.94,35.94,0,0,0,2.34,6.31c2-.23,15.81-3.62,16.68-5.14-.56-1-6-2.71-10.94-3.78Z" fill="#231f20"></path><polygon points="159.09 230.6 155.65 244.64 164.26 247.63 168.38 234.12 159.09 230.6" fill="#fff"></polygon><path d="M164.26,248.13a.51.51,0,0,1-.17,0l-8.6-3a.48.48,0,0,1-.32-.59l3.44-14a.5.5,0,0,1,.25-.32.46.46,0,0,1,.41,0l9.29,3.52a.51.51,0,0,1,.3.61l-4.13,13.51a.5.5,0,0,1-.25.3A.59.59,0,0,1,164.26,248.13Zm-8-3.81,7.68,2.67,3.83-12.57-8.31-3.15Z" fill="#231f20"></path><path d="M155.65,244.64s-2.61,7-2.06,7.4,16.74,7.75,17.3,5.83-6.63-10.24-6.63-10.24Z" fill="#231f20"></path><path d="M170.18,258.68c-3.61,0-16.32-5.79-16.9-6.25-.27-.22-.84-.68,1.9-8a.5.5,0,0,1,.63-.3l8.61,3a.45.45,0,0,1,.21.15c1.73,2,7.33,8.68,6.74,10.7a.88.88,0,0,1-.63.6A1.82,1.82,0,0,1,170.18,258.68Zm-16.17-7c1.7,1,14.81,6.64,16.41,6,.16-1.14-3.17-5.8-6.46-9.61l-8-2.79A37,37,0,0,0,154,251.71Zm0,.1h0Z" fill="#231f20"></path><path d="M196.49,150.79s15.75,64.76,19.67,89.41l-12,5.58s-17.29-43-23.3-58.27c0,0-5.32,41.12-12,53l-13.11-2s6.18-30.8,7.25-55.26.73-30.16.73-30.16Z" fill="#231f20"></path><path d="M204.15,246.28a.58.58,0,0,1-.19,0,.48.48,0,0,1-.28-.28c-.16-.42-16.1-40.1-22.59-56.49-1.14,8.32-5.9,40.77-11.82,51.27a.51.51,0,0,1-.51.25l-13.11-2a.51.51,0,0,1-.34-.21.58.58,0,0,1-.08-.39c.06-.3,6.19-31,7.24-55.18s.73-30.06.73-30.11a.49.49,0,0,1,.46-.53l32.79-2.32a.51.51,0,0,1,.53.38c.15.65,15.8,65.06,19.67,89.45a.49.49,0,0,1-.28.53l-12,5.59A.52.52,0,0,1,204.15,246.28ZM180.85,187a.51.51,0,0,1,.47.32c5.59,14.18,21.16,53,23.09,57.78l11.2-5.21c-3.8-23.59-18.17-83.05-19.51-88.59l-31.89,2.26c.06,1.84.15,9.25-.74,29.72-1,22.5-6.35,50.68-7.16,54.83L168.56,240c6.5-12,11.75-52.11,11.8-52.51a.49.49,0,0,1,.43-.43Z" fill="#231f20"></path><path d="M219.05,109s3.66-4.16,4-4.49.63-3.36,2.38-4.3a8.06,8.06,0,0,1,2.52-1s4.87-4.64,5.53-3.84-2.75,4.54-2.75,4.54,1.72,2.74.8,5.15-2.23,4-3.74,4.34-5.52,6.26-5.52,6.26Z" fill="#fff"></path><path d="M222.29,116.11h0a.48.48,0,0,1-.41-.28l-3.25-6.63a.48.48,0,0,1,.08-.55c.37-.43,3.68-4.19,4-4.53l.19-.65c.33-1.1.88-3,2.29-3.72a10,10,0,0,1,2.52-1c1.37-1.3,4.44-4,5.59-4a.77.77,0,0,1,.57.28c.73.9-.91,3.11-2.53,4.92a6.71,6.71,0,0,1,.65,5.26c-1,2.67-2.43,4.27-4.09,4.65-.92.21-3.6,3.66-5.21,6A.5.5,0,0,1,222.29,116.11Zm-2.64-7,2.72,5.56c1.21-1.73,3.95-5.44,5.33-5.76s2.5-1.72,3.38-4c.82-2.15-.74-4.68-.76-4.71a.51.51,0,0,1,.06-.6,14.62,14.62,0,0,0,2.68-3.74,23.82,23.82,0,0,0-4.75,3.75.51.51,0,0,1-.29.13,8.07,8.07,0,0,0-2.33,1c-1.05.56-1.52,2.17-1.81,3.13a2.37,2.37,0,0,1-.48,1.1C223.17,105.07,221.06,107.45,219.65,109.06Z" fill="#231f20"></path><path d="M172.94,93.59a11.22,11.22,0,0,1-6,.63,4.45,4.45,0,0,1-2.44-1.15,2.13,2.13,0,0,1-.4-2.51,3.17,3.17,0,0,1-2.65-1.18,5.56,5.56,0,0,1-1.16-2.74,3.81,3.81,0,0,1,.93-3.62c-1-.51-2.09-1.16-2.34-2.25a3.45,3.45,0,0,1,.14-1.65A17.23,17.23,0,0,1,160.14,76c.25-.53.64-1.13,1.23-1.13a5.7,5.7,0,0,1,1-5.94,4.7,4.7,0,0,1,2.67-1.56,18.89,18.89,0,0,1,3.32.21,5.73,5.73,0,0,1,4.68-2.2,3.93,3.93,0,0,1,3.09,2.55,8.43,8.43,0,0,1,3.71.27,4.19,4.19,0,0,1,2.67,2.44,2.81,2.81,0,0,1-1.05,3.3A3,3,0,0,1,184,77a3.67,3.67,0,0,1-2.56,3.2,1.28,1.28,0,0,0-.55.26,1.43,1.43,0,0,0-.27.7c-.22.78-.94,1.13-1.29,1.79a20.08,20.08,0,0,0-1,3.08,27.62,27.62,0,0,1-1.13,2.9,16.26,16.26,0,0,1-1.4,3.23c-.61.84-1.3.83-2.22,1.17Z" fill="#fff"></path><path d="M168.74,94.9a9.69,9.69,0,0,1-1.89-.19,4.86,4.86,0,0,1-2.71-1.29,2.81,2.81,0,0,1-.75-2.39,3.83,3.83,0,0,1-2.32-1.32,6.12,6.12,0,0,1-1.28-3,4.67,4.67,0,0,1,.63-3.57,3.7,3.7,0,0,1-2-2.26,4.06,4.06,0,0,1,.13-1.9,18.46,18.46,0,0,1,1.16-3.19,2.71,2.71,0,0,1,1-1.25A6.25,6.25,0,0,1,162,68.61a5.2,5.2,0,0,1,3-1.72,19,19,0,0,1,3.21.15,6.17,6.17,0,0,1,5-2.14,4.46,4.46,0,0,1,3.35,2.5,8.69,8.69,0,0,1,3.54.33,4.67,4.67,0,0,1,3,2.76,3.46,3.46,0,0,1-.51,3.23,3.59,3.59,0,0,1,2,3.31,4.14,4.14,0,0,1-2.91,3.66,1.12,1.12,0,0,0-.34.13.91.91,0,0,0-.11.32l0,.16a3.06,3.06,0,0,1-.83,1.28,2.84,2.84,0,0,0-.5.62,9.79,9.79,0,0,0-.66,2c-.09.36-.18.71-.28,1a31.42,31.42,0,0,1-1.15,3c-.16.35-.28.72-.41,1.09a8.76,8.76,0,0,1-1,2.24,3,3,0,0,1-1.85,1.14l-.6.2-.71.25h0A13.31,13.31,0,0,1,168.74,94.9Zm-4.64-4.84a.49.49,0,0,1,.43.23.5.5,0,0,1,0,.54,1.65,1.65,0,0,0,.34,1.9,3.93,3.93,0,0,0,2.18,1,10.84,10.84,0,0,0,5.74-.62h0l.68-.24c.24-.09.46-.15.67-.22a2.08,2.08,0,0,0,1.32-.77,7.65,7.65,0,0,0,.9-2c.14-.4.28-.79.44-1.16a29.78,29.78,0,0,0,1.11-2.85c.1-.31.19-.64.28-1a10.16,10.16,0,0,1,.73-2.18,4.2,4.2,0,0,1,.67-.85,2.16,2.16,0,0,0,.58-.84l0-.14a1.53,1.53,0,0,1,.36-.78,1.47,1.47,0,0,1,.7-.36A3.21,3.21,0,0,0,183.53,77a2.5,2.5,0,0,0-2.07-2.54.5.5,0,0,1-.2-.93,2.34,2.34,0,0,0,.83-2.7,3.68,3.68,0,0,0-2.36-2.14,8.1,8.1,0,0,0-3.49-.25.5.5,0,0,1-.53-.33A3.42,3.42,0,0,0,173,65.89a5.22,5.22,0,0,0-4.21,2h0a.51.51,0,0,1-.64.15,26.71,26.71,0,0,0-3-.16,4.24,4.24,0,0,0-2.39,1.4,5.23,5.23,0,0,0-1,5.4.54.54,0,0,1,0,.48.53.53,0,0,1-.41.23c-.32,0-.61.46-.79.85a17.73,17.73,0,0,0-1.09,3,3,3,0,0,0-.13,1.42c.2.88,1.18,1.45,2.08,1.92a.49.49,0,0,1,.27.39.5.5,0,0,1-.18.44c-1,.83-.87,2.48-.76,3.14a5.12,5.12,0,0,0,1.05,2.51,2.66,2.66,0,0,0,2.22,1Zm8.84,3.53h0ZM168,67.29Z" fill="#231f20"></path><path d="M181.35,81.13s4.12,3.06,3.88,4.1S183,86.37,183,86.37" fill="#fff"></path><path d="M183,86.87a.49.49,0,0,1-.5-.47.5.5,0,0,1,.47-.53c.67,0,1.71-.3,1.82-.76S183,83,181.05,81.53a.5.5,0,0,1-.1-.7.5.5,0,0,1,.7-.1c1.64,1.22,4.35,3.43,4.06,4.61-.32,1.36-2.49,1.52-2.73,1.53Z" fill="#231f20"></path><path d="M177.3,72.64a1.38,1.38,0,0,1,.79.44,8.76,8.76,0,0,1,1.81,2.71,49.31,49.31,0,0,1,2.39,6q1.43,4,2.67,8.11c.52,1.73-3.85,3.36-4.81,3.14l3.12,6.45s-1.9,1.34-6,1-4.48-1.18-4.48-1.18l-2.52-7.84s2.91-1,3.37-5.11a11,11,0,0,1,.07-2.16c.24-.74.9-1.12,1-2a2.62,2.62,0,0,0-.91-2.16c-.14-.11-.31-.25-.27-.43a.47.47,0,0,1,.17-.25,2.21,2.21,0,0,0-.16-3.15c1.11-.41,1.44-1.78,1.61-2.95-.05.36,1.77-.55,1.8-.56A1.33,1.33,0,0,1,177.3,72.64Z" fill="#fff"></path><path d="M178.58,101c-.43,0-.89,0-1.39-.06-3.86-.33-4.72-1.08-4.89-1.49l-2.53-7.88a.49.49,0,0,1,.3-.62c.11,0,2.63-1,3-4.7a5.18,5.18,0,0,0,0-.79A4,4,0,0,1,173.2,84a3.81,3.81,0,0,1,.51-.92,1.72,1.72,0,0,0,.43-1,2.08,2.08,0,0,0-.74-1.74.84.84,0,0,1-.14-1.4,1.71,1.71,0,0,0-.1-2.42.51.51,0,0,1-.18-.47.49.49,0,0,1,.32-.39c.86-.31,1.14-1.53,1.29-2.55h0a.49.49,0,0,1,.57-.42.52.52,0,0,1,.16.06,8.57,8.57,0,0,0,1.26-.54l.16-.06a1.58,1.58,0,0,1,.59-.07h0a1.87,1.87,0,0,1,1.09.55,9.32,9.32,0,0,1,1.93,2.86,46.42,46.42,0,0,1,2.2,5.48l.21.59c1,2.67,1.85,5.41,2.68,8.13a1.78,1.78,0,0,1-.55,1.78,8.06,8.06,0,0,1-4,2l2.79,5.77a.49.49,0,0,1-.16.62A8.89,8.89,0,0,1,178.58,101Zm-5.37-2c.14.12.95.65,4.07.92a10.6,10.6,0,0,0,5.33-.7l-2.91-6a.5.5,0,0,1,.56-.71,6.87,6.87,0,0,0,3.9-1.69c.28-.31.39-.58.32-.81-.82-2.71-1.72-5.43-2.66-8.09l-.21-.59A46.46,46.46,0,0,0,179.46,76a8.7,8.7,0,0,0-1.71-2.56c-.26-.23-.37-.3-.49-.31s0,0,0,0a.69.69,0,0,0-.22,0,8.67,8.67,0,0,1-1.51.62,4.07,4.07,0,0,1-1.24,2.54,2.8,2.8,0,0,1,.45,1.39,2.6,2.6,0,0,1-.67,1.92h0a3.11,3.11,0,0,1,1.09,2.57,2.65,2.65,0,0,1-.61,1.46,2.61,2.61,0,0,0-.38.66,3.23,3.23,0,0,0,0,1.1,7.69,7.69,0,0,1,0,1,6.59,6.59,0,0,1-3.26,5.32Z" fill="#231f20"></path><path d="M184.17,87.93a3.36,3.36,0,0,1-4.3-.7" fill="#fff"></path><path d="M182.46,88.92a4.08,4.08,0,0,1-3-1.34.5.5,0,0,1,.72-.7,2.85,2.85,0,0,0,3.66.64.49.49,0,0,1,.69.13.5.5,0,0,1-.13.7A3.71,3.71,0,0,1,182.46,88.92Z" fill="#231f20"></path><path d="M176.84,84.71a3.91,3.91,0,0,0-1.41-1.56,5.61,5.61,0,0,0-1.42-.86,1.87,1.87,0,0,0-1.6.08,1.73,1.73,0,0,0-.74,1.21,3.24,3.24,0,0,0,.14,1.45,6.11,6.11,0,0,0,4.5,4.13l-.2-.11" fill="#fff"></path><path d="M176.31,89.66h-.1a6.63,6.63,0,0,1-4.87-4.48,3.7,3.7,0,0,1-.17-1.67,2.23,2.23,0,0,1,1-1.55,2.3,2.3,0,0,1,2-.13,5.8,5.8,0,0,1,1.55.93,4.31,4.31,0,0,1,1.58,1.78.5.5,0,0,1-.94.36,3.33,3.33,0,0,0-1.25-1.34,4.77,4.77,0,0,0-1.28-.79,1.33,1.33,0,0,0-1.16,0,1.2,1.2,0,0,0-.52.86,2.92,2.92,0,0,0,.13,1.23A5.63,5.63,0,0,0,176,88.56a.51.51,0,0,1,.34,0l.2.1a.51.51,0,0,1,.24.62A.5.5,0,0,1,176.31,89.66Z" fill="#231f20"></path><path d="M180.15,93A7.58,7.58,0,0,1,176,92s1.63,4,5.55,3.93Z" fill="#231f20"></path><path d="M181.41,96.41c-4.11,0-5.81-4.06-5.88-4.24a.48.48,0,0,1,.15-.58.5.5,0,0,1,.6,0,7.2,7.2,0,0,0,3.85,1,.48.48,0,0,1,.47.28L182,95.69a.51.51,0,0,1,0,.48.46.46,0,0,1-.41.24Zm-4.17-3.27a5.35,5.35,0,0,0,3.48,2.22l-.88-1.82A8.84,8.84,0,0,1,177.24,93.14Z" fill="#231f20"></path><ellipse cx="178.59" cy="79.61" rx="0.4" ry="1.02" transform="translate(-15.8 58.54) rotate(-17.84)" fill="#231f20"></ellipse><path d="M186.83,96.67c-1.25-.89-15.5-4.4-19.38,1.85s-8.35,47.4-5.93,57.39l36.87-5.12S193.74,101.55,186.83,96.67Z" fill="#68e1fd"></path><path d="M185.15,117.07s7.57,10.57,17.19,10.18,24.31-14.87,24.31-14.87L221,105.73s-8.81,7.74-14.24,7c-7.58-1.07-18-14.19-18-14.19Z" fill="#68e1fd"></path><path d="M202.24,128c-3.83,0-8.13-1.65-12.67-4.89a51.07,51.07,0,0,1-8.46-7.73.5.5,0,1,1,.76-.64c.14.16,13.75,16.2,24.81,11.36,11.45-5,16.91-11.6,17-11.66a.5.5,0,1,1,.77.63c-.22.28-5.65,6.83-17.34,11.94A11.94,11.94,0,0,1,202.24,128Z" fill="#231f20"></path><path d="M203.08,111.66a.42.42,0,0,1-.22,0c-1.88-.93-11.33-8.29-13.62-11.46A7.31,7.31,0,0,0,184.83,97a.51.51,0,0,1-.43-.56A.5.5,0,0,1,185,96a8.13,8.13,0,0,1,5.09,3.55c2.2,3,11.57,10.31,13.25,11.15a.5.5,0,0,1,.23.67A.51.51,0,0,1,203.08,111.66Z" fill="#231f20"></path><path d="M161.85,146.1a.51.51,0,0,1-.5-.45c-1.38-14,2.06-37.86,2.1-38.1a.5.5,0,0,1,1,.14c0,.24-3.46,24-2.09,37.86a.5.5,0,0,1-.45.55Z" fill="#231f20"></path><path d="M239.21,175.29a.5.5,0,0,1-.37-.17l-4.26-4.73a.5.5,0,0,1,.74-.67l4.26,4.74a.48.48,0,0,1,0,.7A.46.46,0,0,1,239.21,175.29Z" fill="#231f20"></path><path d="M147.89,120.69a.46.46,0,0,1-.33-.13.48.48,0,0,1,0-.7l8.84-9.82a.5.5,0,1,1,.74.67l-8.84,9.82A.49.49,0,0,1,147.89,120.69Z" fill="#231f20"></path></g></svg>